<svg xmlns="http://www.w3.org/2000/svg" width="48" height="48" viewBox="0 0 12.7 12.7"><path d="M8.034 3.969a1.683 2.38 0 0 0-1.683 2.383h-.009a3.174 3.44 0 0 1-1.578 2.714 3.174 3.44 0 0 1-3.177 0A3.174 3.44 0 0 1 .01 6.352H0a6.351 6.35 0 0 0 3.174 5.497 6.351 6.35 0 0 0 6.352 0A6.351 6.35 0 0 0 12.7 6.467a6.351 6.35 0 0 0 0-.115 1.683 2.38 0 0 0-1.68-2.383 1.683 2.38 0 0 0-1.494 1.279 1.683 2.38 0 0 0-1.492-1.28Z" style="display:inline;fill:#21b1ff;stroke-width:.794317"/><path d="M6.227.001a6.35 6.35 0 0 0-3.05.85A6.35 6.35 0 0 0 0 6.234a1.681 2.38 0 0 0 0 .117 1.681 2.38 0 0 0 1.68 2.38A1.681 2.38 0 0 0 3.178 7.45a1.681 2.38 0 0 0 1.492 1.282 1.681 2.38 0 0 0 1.681-2.38h.01a3.176 3.44 0 0 1 1.578-2.714 3.176 3.44 0 0 1 3.177 0A3.176 3.44 0 0 1 12.69 6.35h.009A6.35 6.35 0 0 0 9.527.85a6.35 6.35 0 0 0-3.3-.85Z" style="display:inline;fill:#ff218c;stroke-width:.794321"/></svg>